Coordinates
version=1
nRows=13
nColumns=26
inDegrees=yes

Units are S.I. units (second, meters, Newtons, ...)
Angles are in degrees.

endheader
time	pelvis_tilt	pelvis_list	pelvis_rotation	pelvis_tx	pelvis_ty	pelvis_tz	hip_flexion_r	hip_adduction_r	hip_rotation_r	knee_angle_r	knee_angle_r_beta	ankle_angle_r	subtalar_angle_r	mtp_angle_r	hip_flexion_l	hip_adduction_l	hip_rotation_l	knee_angle_l	knee_angle_l_beta	ankle_angle_l	subtalar_angle_l	mtp_angle_l	lumbar_extension	lumbar_bending	lumbar_rotation
    179.38571430	    -13.55060436	     -5.02959723	      1.53007286	      0.35004036	      1.01677350	      0.10546248	     53.69984852	      3.87833194	     -0.89201592	     88.43778648	     88.43778648	     -8.17566835	    -26.67458879	      0.00000000	      2.80234274	     -1.96599011	      6.29722102	     22.03173658	     22.03173658	      0.56257582	    -12.95655172	      0.00000000	     -3.51099366	      5.34792872	     -8.25111923
    179.39571430	    -14.24878766	     -6.72779376	      1.26410496	      0.35310624	      1.02349306	      0.10551289	     54.27616414	      5.34850116	     -2.21378351	     81.79886180	     81.79886180	     -8.30221208	    -27.29191502	      0.00000000	      0.53426885	     -4.17135433	      5.49250068	     19.07224327	     19.07224327	     -4.23752939	    -12.04214072	      0.00000000	     -2.20260261	      7.57383627	     -8.94339198
    179.40571430	    -14.81577121	     -7.88760471	      1.01714956	      0.35650650	      1.02975337	      0.10554821	     54.34905192	      6.42744944	     -3.01453892	     74.77627199	     74.77627199	     -8.77533436	    -27.76061004	      0.00000000	     -1.80082630	     -5.81627159	      4.22289188	     16.11322336	     16.11322336	     -9.02015553	    -10.37528377	      0.00000000	     -1.03568955	      9.13838186	     -9.65425880
    179.41571430	    -14.99127325	     -8.68019083	      0.77007068	      0.36017474	      1.03604816	      0.10546608	     53.57738394	      7.29239685	     -3.37602653	     67.23395043	     67.23395043	     -9.18473391	    -27.74669868	      0.00000000	     -4.37742608	     -7.05890402	      2.53738035	     13.37537717	     13.37537717	    -13.73843274	     -8.12701638	      0.00000000	     -0.37758927	     10.27842105	    -10.07427655
    179.42571430	    -15.23294485	     -8.94078815	      0.49833350	      0.36377740	      1.04153085	      0.10543687	     52.49998739	      7.83385501	     -3.13522371	     59.24299345	     59.24299345	     -9.67495650	    -27.12182057	      0.00000000	     -6.44927243	     -7.63338904	      0.81258551	     11.48848084	     11.48848084	    -17.78239030	     -6.30384181	      0.00000000	      0.32847764	     10.75494475	    -10.41185336
    179.43571430	    -15.45520176	     -8.83106000	      0.21775764	      0.36724886	      1.04611065	      0.10544402	     51.06294058	      8.12303890	     -2.50127261	     50.88694112	     50.88694112	    -10.39839573	    -25.91656311	      0.00000000	     -8.09882945	     -7.70530775	     -0.74370138	     10.56635088	     10.56635088	    -21.27416690	     -5.28391650	      0.00000000	      0.96513160	     10.75953880	    -10.54777443
    179.44571430	    -15.25592467	     -8.23490583	      0.29750383	      0.37094788	      1.04975656	      0.10509141	     48.95250442	      7.81792915	     -1.64403852	     42.44005643	     42.44005643	    -11.64466318	    -24.61679143	      0.00000000	     -9.71780886	     -7.20728178	     -1.45370080	     10.74620448	     10.74620448	    -23.57887158	     -4.82084914	      0.00000000	      1.17535896	     10.13424494	    -10.91176209
    179.45571430	    -15.05353005	     -7.10892824	      0.64189645	      0.37427973	      1.05158627	      0.10435703	     46.85305239	      6.70973094	     -0.93805227	     34.45513682	     34.45513682	    -12.55393288	    -22.09003814	      0.00000000	    -10.90663686	     -6.04301118	     -0.67467473	     12.06261028	     12.06261028	    -23.60563044	     -5.46564108	      0.00000000	      1.39057931	      8.87436167	    -11.33309793
    179.46571430	    -14.56626460	     -5.61621495	      1.20170692	      0.37753449	      1.05221072	      0.10338046	     44.67142938	      5.06526205	     -0.66030064	     27.48808450	     27.48808450	    -13.03662942	    -19.08594490	      0.00000000	    -12.05268009	     -4.44999342	      1.06390014	     14.26172309	     14.26172309	    -22.38827907	     -6.62251717	      0.00000000	      1.26553714	      7.17418532	    -11.85363850
    179.47571430	    -13.98052030	     -4.04701405	      1.70886783	      0.38046236	      1.05190495	      0.10266945	     42.70561841	      3.34614495	     -0.90706337	     21.86387614	     21.86387614	    -12.80231394	    -15.81926619	      0.00000000	    -12.88245385	     -2.75765989	      2.77140576	     17.34267199	     17.34267199	    -21.57547678	     -8.39876345	      0.00000000	      0.95142122	      5.39021994	    -12.23030562
    179.48571430	    -13.38898726	     -2.68851026	      1.95394047	      0.38281069	      1.05099029	      0.10261881	     41.00190319	      1.95237296	     -1.79134857	     17.56188387	     17.56188387	    -12.04115999	    -12.51869854	      0.00000000	    -13.25108447	     -1.31289709	      3.52679828	     21.25374471	     21.25374471	    -21.66802710	     -9.97985990	      0.00000000	      0.51694052	      3.86391604	    -12.28712361
    179.49571430	    -12.85395088	     -1.65611987	      2.00091636	      0.38450438	      1.04949368	      0.10303323	     39.53453447	      1.05378580	     -2.85699934	     14.36346770	     14.36346770	    -11.62496209	    -10.17310492	      0.00000000	    -13.10690611	     -0.26617000	      3.49987499	     25.86799995	     25.86799995	    -22.34708730	    -11.41616182	      0.00000000	      0.06081014	      2.73145738	    -12.14327420
    179.50571430	    -12.20756218	     -0.82064983	      2.08431306	      0.38574476	      1.04756423	      0.10319489	     38.15616163	      0.37894313	     -3.88005493	     12.34735398	     12.34735398	    -11.41937498	     -8.44232820	      0.00000000	    -12.70432795	      0.54550196	      3.37599240	     31.01910705	     31.01910705	    -23.26773987	    -13.10072129	      0.00000000	     -0.57321921	      1.88792457	    -12.08327775
